<?xml version="1.0" encoding="UTF-8" standalone="no"?>
<!-- Created with Inkscape (http://www.inkscape.org/) -->

<svg
   width="111.83386mm"
   height="112.10785mm"
   viewBox="0 0 111.83386 112.10785"
   version="1.1"
   id="svg1"
   xml:space="preserve"
   xmlns="http://www.w3.org/2000/svg"
   xmlns:svg="http://www.w3.org/2000/svg"><defs
     id="defs1" /><g
     id="layer1"
     transform="translate(-49.851266,-81.778507)"><g
       id="g1"><path
         style="display:inline;fill:#eefdfd"
         d="m 103.44431,193.75292 c 0.18191,-0.0734 0.47956,-0.0734 0.66146,0 0.1819,0.0734 0.0331,0.13345 -0.33073,0.13345 -0.3638,0 -0.51263,-0.06 -0.33073,-0.13345 z m 4.10608,-0.008 c 0.25743,-0.0671 0.61462,-0.0627 0.79375,0.01 0.17913,0.0725 -0.0315,0.12736 -0.46805,0.12197 -0.43657,-0.005 -0.58313,-0.0647 -0.3257,-0.13178 z m -6.28889,-1.02611 c -0.43656,-0.06 -1.865311,-0.24333 -3.174998,-0.40737 -6.926211,-0.86752 -14.930482,-3.75433 -21.130001,-7.62071 -3.896103,-2.42984 -6.599292,-4.58724 -9.965542,-7.95342 -8.326468,-8.32632 -13.506658,-18.48932 -15.512541,-30.43403 -0.652631,-3.88631 -0.652631,-13.04702 0,-16.93333 2.00508,-11.93993 7.195867,-22.13157 15.492151,-30.417438 8.405016,-8.394466 18.248204,-13.433648 30.333546,-15.529143 3.695375,-0.640746 13.215235,-0.640746 16.910605,0 7.5558,1.31011 14.01115,3.696605 20.14086,7.445922 3.93893,2.409299 6.7555,4.646194 10.18914,8.092106 8.35435,8.384223 13.48935,18.461073 15.4957,30.408553 0.65263,3.88631 0.65263,13.04702 0,16.93333 -2.00588,11.94471 -7.18607,22.10771 -15.51254,30.43403 -8.33716,8.337 -18.38291,13.48903 -30.17319,15.47452 -2.37717,0.40032 -11.34351,0.7475 -13.09319,0.50698 z m 13.36146,-13.17214 c 3.7913,-0.88448 5.71111,-1.55976 9.15068,-3.21869 4.34193,-2.09413 7.49645,-4.31721 10.90621,-7.68589 l 2.99127,-2.95523 1.77123,-0.12715 c 2.96142,-0.21258 5.44901,-1.86483 6.88361,-4.57206 0.59939,-1.1311 0.70111,-1.649 0.70157,-3.57187 5.4e-4,-2.23782 -0.46267,-3.70914 -1.58265,-5.02708 -0.2762,-0.32502 -0.22109,-0.85199 0.30437,-2.91042 1.83947,-7.20604 1.86227,-13.84485 0.0711,-20.71424 -2.94454,-11.29281 -11.29897,-21.60647 -21.40782,-26.42825 -2.84385,-1.35648 -5.49183,-2.379737 -7.71689,-2.982032 l -1.74049,-0.47113 -0.13095,-1.631309 c -0.22651,-2.821793 -1.92746,-5.328188 -4.56687,-6.729397 -1.14905,-0.610006 -1.63588,-0.702309 -3.70417,-0.702309 -2.06829,0 -2.55512,0.0923 -3.70417,0.702309 -2.58353,1.371543 -4.315369,3.873759 -4.561758,6.590983 l -0.137433,1.515638 -1.222279,0.177039 c -3.211248,0.465127 -10.046049,3.494158 -14.743257,6.533888 -5.376397,3.47926 -10.504477,9.58945 -13.60291,16.20809 -2.469525,5.27522 -3.637865,10.14802 -3.873866,16.15676 -0.175725,4.47406 0.101525,7.35184 1.107549,11.49605 l 0.671167,2.7648 -0.868605,1.60083 c -0.789279,1.45462 -0.868315,1.80621 -0.86543,3.84978 0.0026,1.83992 0.115973,2.4655 0.623364,3.43958 1.439611,2.76373 3.964821,4.47961 6.90893,4.69462 l 1.724947,0.12597 2.778125,2.72681 c 6.482961,6.3632 13.99118,10.12995 23.192955,11.63552 3.635461,0.59483 11.053021,0.34579 14.642461,-0.49161 z m -12.7,-0.73172 c -6.451607,-0.74132 -12.828638,-3.00274 -17.902869,-6.34871 -2.596255,-1.71198 -6.118495,-4.6832 -7.387339,-6.23166 l -0.92231,-1.12556 1.013465,-0.51703 c 1.36618,-0.69697 3.021419,-2.54293 3.649683,-4.07021 l 0.514996,-1.25193 24.932524,-0.001 24.93252,-9.9e-4 0.69329,1.38906 c 0.84031,1.68364 2.27234,3.23736 3.62921,3.9376 l 1.0063,0.51933 -1.07087,1.27903 c -3.20237,3.82487 -12.7229,9.59423 -18.54253,11.23659 -4.41479,1.24591 -10.03435,1.70389 -14.54607,1.18548 z m 0.66146,-21.1362 c -11.787189,-0.0779 -21.444833,-0.16892 -21.461433,-0.20229 -0.0166,-0.0334 -0.103519,-0.59573 -0.193152,-1.24967 -0.231904,-1.69193 -1.252948,-3.54624 -2.673862,-4.85599 l -1.224762,-1.12895 4.022248,-6.79793 c 2.212236,-3.73886 8.163079,-13.71517 13.224096,-22.16957 l 9.201845,-15.37164 2.46293,0.0258 c 1.35461,0.0142 2.74108,-0.0337 3.08106,-0.10648 0.5683,-0.12163 1.11894,0.7209 6.83026,10.45104 10.05144,17.12421 19.40681,33.36731 19.40681,33.69474 0,0.16732 -0.12172,0.30422 -0.2705,0.30422 -0.5551,0 -2.7105,2.27354 -3.34792,3.53143 -0.36336,0.71705 -0.72655,1.94222 -0.80709,2.72261 l -0.14644,1.41888 -3.33642,-0.0623 c -1.83503,-0.0343 -12.98048,-0.12602 -24.76767,-0.2039 z m -34.910424,-7.20103 c -3.001311,-9.50921 -1.832234,-20.98305 3.067278,-30.10361 1.504627,-2.80089 2.897701,-4.78943 5.31891,-7.59242 3.50209,-4.05432 7.44326,-6.96953 13.030485,-9.6384 2.72484,-1.30159 7.871115,-3.14209 8.785678,-3.14209 0.361446,0 0.704176,0.40053 1.14128,1.33377 0.343588,0.73357 1.208953,1.88027 1.923043,2.54821 l 1.29834,1.21444 -12.512582,20.80127 c -6.881918,11.44069 -12.888414,21.3916 -13.34777,22.11311 l -0.835193,1.31185 -2.486814,0.0137 c -2.189212,0.0121 -2.653708,0.10134 -3.881397,0.74593 -1.010841,0.53073 -1.423936,0.63921 -1.501258,0.39423 z m 74.862504,-0.4163 c -1.08974,-0.5752 -1.71135,-0.70635 -3.52671,-0.74407 l -2.20379,-0.0458 -3.44104,-5.91591 c -1.89258,-3.25375 -7.67066,-13.22098 -12.84018,-22.1494 l -9.39912,-16.23348 1.19213,-1.22902 c 0.65567,-0.67595 1.44817,-1.74127 1.76111,-2.36737 0.41205,-0.8244 0.69324,-1.10238 1.01954,-1.00793 0.24781,0.0717 0.98634,0.26214 1.64119,0.42313 4.48606,1.10287 11.79381,5.08894 15.46778,8.43702 6.72663,6.12997 10.88156,13.60325 12.87966,23.16604 0.81201,3.88623 0.81265,9.79809 10e-4,13.88286 -0.3295,1.65932 -0.74086,3.34662 -0.91412,3.74957 l -0.31501,0.73263 z m -74.108469,29.51321 -0.504028,-0.59531 0.595312,0.50403 c 0.559447,0.47366 0.715762,0.68659 0.504028,0.68659 -0.05021,0 -0.318097,-0.26789 -0.595312,-0.59531 z m 74.373049,0.0661 c 0.26339,-0.29104 0.53842,-0.52917 0.61119,-0.52917 0.0728,0 -0.0832,0.23813 -0.3466,0.52917 -0.26339,0.29104 -0.53842,0.52916 -0.61118,0.52916 -0.0728,0 0.0832,-0.23812 0.34659,-0.52916 z m -78.870966,-4.56407 -0.504028,-0.59531 0.595313,0.50403 c 0.327422,0.27722 0.595312,0.54511 0.595312,0.59531 0,0.21174 -0.212935,0.0554 -0.686597,-0.50403 z m 82.972016,0.49542 c 0,-0.0549 0.20836,-0.2633 0.46302,-0.46302 0.41964,-0.32911 0.429,-0.31975 0.0999,0.0999 -0.34564,0.44073 -0.56291,0.58088 -0.56291,0.36312 z M 49.851625,139.82086 c 0.0054,-0.43656 0.06469,-0.58313 0.131774,-0.3257 0.06708,0.25744 0.06267,0.61462 -0.0098,0.79375 -0.07248,0.17914 -0.127362,-0.0315 -0.12197,-0.46805 z m 111.654165,0 c 0.005,-0.43656 0.0647,-0.58313 0.13177,-0.3257 0.0671,0.25744 0.0627,0.61462 -0.01,0.79375 -0.0725,0.17914 -0.12736,-0.0315 -0.12197,-0.46805 z M 49.851625,135.85211 c 0.0054,-0.43656 0.06469,-0.58313 0.131774,-0.3257 0.06708,0.25744 0.06267,0.61462 -0.0098,0.79375 -0.07248,0.17914 -0.127362,-0.0315 -0.12197,-0.46805 z m 111.654165,0 c 0.005,-0.43656 0.0647,-0.58313 0.13177,-0.3257 0.0671,0.25744 0.0627,0.61462 -0.01,0.79375 -0.0725,0.17914 -0.12736,-0.0315 -0.12197,-0.46805 z M 63.822961,100.69492 c 0,-0.0549 0.20836,-0.2633 0.463021,-0.46302 0.419644,-0.329105 0.429002,-0.319746 0.09989,0.0999 -0.345644,0.44073 -0.562916,0.58088 -0.562916,0.36312 z m 83.309999,-0.36312 c -0.32911,-0.419646 -0.31975,-0.429005 0.0999,-0.0999 0.25467,0.19972 0.46303,0.40808 0.46303,0.46302 0,0.21776 -0.21728,0.0776 -0.56292,-0.36312 z M 68.45317,96.032319 c 0.263389,-0.291042 0.53842,-0.529167 0.61118,-0.529167 0.07276,0 -0.08321,0.238125 -0.346597,0.529167 -0.263389,0.291041 -0.538421,0.529166 -0.611181,0.529166 -0.07276,0 0.08321,-0.238125 0.346598,-0.529166 z m 74.32278,-0.06615 -0.50403,-0.595312 0.59531,0.504027 c 0.32742,0.277216 0.59531,0.545106 0.59531,0.595313 0,0.211734 -0.21293,0.05542 -0.68659,-0.504028 z M 103.44431,81.834175 c 0.18191,-0.0734 0.47956,-0.0734 0.66146,0 0.1819,0.0734 0.0331,0.133452 -0.33073,0.133452 -0.3638,0 -0.51263,-0.06005 -0.33073,-0.133452 z m 4.10608,-0.0081 c 0.25743,-0.06708 0.61462,-0.06267 0.79375,0.0098 0.17913,0.07248 -0.0315,0.127362 -0.46805,0.12197 -0.43657,-0.0054 -0.58313,-0.06469 -0.3257,-0.131774 z"
         id="path6" /><path
         style="display:inline;fill:#c70e32"
         d="m 136.14855,165.08314 c -1.87238,-0.74254 -3.62198,-2.36024 -4.51125,-4.17117 -0.61576,-1.25392 -0.74153,-1.85059 -0.73699,-3.49632 0.006,-2.31972 0.58276,-3.82962 2.10505,-5.51461 3.10928,-3.44161 8.80925,-3.44161 11.91853,0 1.52659,1.68975 2.09958,3.19472 2.09958,5.51461 0,2.31989 -0.57299,3.82485 -2.09958,5.51461 -2.11764,2.34397 -5.93313,3.28004 -8.77534,2.15288 z"
         id="path4" /><path
         style="display:inline;fill:#32c70e"
         d="m 70.569836,165.26362 c -2.484287,-0.82322 -4.191159,-2.31167 -5.20699,-4.54068 -0.839344,-1.84175 -0.837123,-4.75488 0.0051,-6.64073 0.750608,-1.68078 2.412753,-3.33463 4.143594,-4.12291 1.847293,-0.84131 4.767289,-0.84131 6.614583,0 3.024055,1.37725 4.746062,4.08263 4.746062,7.45635 0,3.3739 -1.743772,6.1132 -4.729868,7.43015 -1.592483,0.70233 -4.137903,0.89319 -5.572444,0.41782 z"
         id="path3" /><path
         style="display:inline;fill:#0e32c7"
         d="m 104.17192,105.73235 c -2.48422,-0.82314 -4.191153,-2.31163 -5.206992,-4.54066 -0.839343,-1.841742 -0.837122,-4.754881 0.0051,-6.640726 0.750186,-1.679835 2.411732,-3.333696 4.143602,-4.124426 1.86383,-0.850986 5.01532,-0.850986 6.87916,0 3.02579,1.381509 4.74606,4.084709 4.74606,7.457864 0,3.379038 -1.74359,6.113098 -4.7418,7.435428 -1.60535,0.70803 -4.34723,0.9022 -5.82509,0.41252 z"
         id="path2" /><path
         style="display:inline;fill:#040404"
         d="m 100.86463,193.49987 c -3.879367,-0.48431 -6.848074,-1.00343 -8.995836,-1.57303 -7.179408,-1.90403 -14.012163,-5.22428 -19.902044,-9.67104 -2.790779,-2.10699 -8.366151,-7.67428 -10.435477,-10.42036 -5.669957,-7.52425 -9.162319,-15.70579 -10.847071,-25.41136 -0.643095,-3.70476 -0.643095,-13.47043 0,-17.17519 1.684752,-9.70557 5.177114,-17.88711 10.847071,-25.41136 2.069326,-2.74608 7.644698,-8.313378 10.435477,-10.420367 7.427509,-5.607638 16.188034,-9.344147 25.326002,-10.801958 4.047188,-0.645662 13.180818,-0.64056 17.065628,0.0095 9.27094,1.551422 17.78401,5.198233 25.19371,10.792425 2.79078,2.106989 8.36615,7.67429 10.43547,10.42037 5.67257,7.52772 9.25708,15.92551 10.84172,25.4 0.68416,4.09057 0.68416,13.10733 0,17.19791 -1.58464,9.47448 -5.16915,17.87228 -10.84172,25.4 -2.06932,2.74608 -7.64469,8.31337 -10.43547,10.42036 -7.24648,5.47097 -15.4816,9.0612 -24.39996,10.63757 -2.94951,0.52134 -11.91962,0.90212 -14.2875,0.6065 z m 12.7,-1.06859 c 22.11515,-3.1937 40.30539,-19.64241 45.59895,-41.23334 2.53753,-10.3499 2.00317,-21.96667 -1.45441,-31.61771 -6.29021,-17.5577 -20.63358,-30.721428 -38.32371,-35.171869 -4.9852,-1.254165 -8.34771,-1.665051 -13.62604,-1.665051 -5.27833,0 -8.640839,0.410886 -13.626043,1.665051 -15.797374,3.974265 -29.287311,15.165292 -36.177798,30.012499 -3.625363,7.81171 -5.13946,14.71001 -5.13946,23.41562 0,15.0014 5.585535,28.51896 16.149145,39.08256 12.246555,12.24656 29.482443,17.98413 46.599366,15.51224 z m -11.2003,-12.27791 c -8.723943,-0.77371 -17.296234,-4.47927 -24.000148,-10.37458 -1.242902,-1.09299 -2.702488,-2.52747 -3.243525,-3.18773 -0.951068,-1.16066 -0.963875,-1.20352 -0.386013,-1.29205 0.456747,-0.07 1.271521,0.54823 3.455129,2.62156 5.701421,5.41348 12.12577,8.79282 19.808685,10.41977 3.628492,0.76837 9.608412,0.94284 13.519512,0.39445 5.37366,-0.75347 8.59004,-1.89659 13.89845,-4.93958 3.94035,-2.25877 6.46228,-4.11978 8.88389,-6.55567 1.50762,-1.51651 2.21149,-2.05096 2.57568,-1.95573 0.27562,0.0721 0.50114,0.22995 0.50114,0.35081 0,0.44235 -4.51824,4.76288 -6.57775,6.28991 -4.9011,3.63394 -10.93156,6.41079 -16.48037,7.58872 -1.67787,0.35618 -7.88642,0.96207 -9.06103,0.88426 -0.30629,-0.0203 -1.60843,-0.13016 -2.89365,-0.24414 z m -7.746419,-21.084 -13.787341,-0.0709 0.125807,-0.65812 0.125808,-0.65813 24.774035,0.16805 c 13.62572,0.0924 24.78901,0.18127 24.80731,0.19744 0.0183,0.0162 0.11562,0.29729 0.21627,0.62471 l 0.18299,0.59531 -11.32877,-0.0637 c -6.23082,-0.0351 -17.53307,-0.0956 -25.116109,-0.13463 z m -27.964928,-7.39058 c -0.254676,-0.41208 -1.188032,-4.39826 -1.475525,-6.30168 -0.950512,-6.29312 -0.421352,-12.55843 1.592368,-18.85378 3.031394,-9.47684 9.196873,-17.39203 17.214613,-22.09998 4.943192,-2.90261 8.38818,-4.42751 11.832416,-5.237555 1.780766,-0.418816 2.271462,-0.455994 2.443344,-0.185124 0.35324,0.556676 0.260272,0.718084 -0.504426,0.875763 -4.29471,0.885556 -12.150811,4.518816 -15.960863,7.381516 -2.375706,1.78499 -5.980937,5.39962 -7.988235,8.00906 -2.815273,3.65979 -5.368076,9.00553 -6.566467,13.75063 -1.706032,6.75514 -1.768874,13.01572 -0.196807,19.60658 0.532294,2.23164 0.547558,2.49099 0.168886,2.86966 -0.228963,0.22897 -0.480649,0.31217 -0.559304,0.18491 z m 77.848917,-0.21635 c -0.36423,-0.36422 -0.34365,-0.65066 0.20237,-2.81648 2.59381,-10.28857 0.56619,-22.04508 -5.39613,-31.28783 -4.63879,-7.19101 -11.24387,-12.52046 -19.38638,-15.64231 -1.24085,-0.47574 -2.94633,-1.01686 -3.78996,-1.20248 -1.31716,-0.28981 -1.52276,-0.41526 -1.45521,-0.887905 0.0602,-0.421049 0.23412,-0.528391 0.74012,-0.456729 1.52642,0.216179 5.6544,1.767864 8.86354,3.331764 6.74769,3.28832 11.37493,7.32021 15.51459,13.51844 5.36913,8.0391 7.82736,16.9729 7.10456,25.81973 -0.24693,3.02231 -1.01567,7.20907 -1.67147,9.10331 -0.28797,0.83178 -0.36181,0.88472 -0.72603,0.52049 z m -68.410968,-1.49963 c -0.537929,-0.2605 -0.312381,-0.68967 4.822664,-9.17637 2.962842,-4.89669 8.991318,-14.93804 13.396613,-22.31411 4.405294,-7.37607 8.076171,-13.41849 8.157491,-13.4276 0.0813,-0.009 0.33612,0.13225 0.56621,0.31415 0.36712,0.29023 -0.62287,2.06857 -8.085368,14.52393 -4.677039,7.80626 -10.646831,17.8313 -13.266206,22.27785 -2.619375,4.44656 -4.822031,8.08258 -4.894792,8.08004 -0.07276,-0.003 -0.386236,-0.12759 -0.696612,-0.27789 z M 129.66552,139.7271 c -3.23469,-5.62374 -9.01411,-15.56001 -12.84315,-22.08059 -3.82905,-6.52058 -6.96191,-11.95966 -6.96191,-12.08686 0,-0.23068 1.03096,-0.66087 1.17314,-0.48951 0.0412,0.0497 1.7174,2.9478 3.72487,6.4403 2.00747,3.4925 7.73931,13.39861 12.73742,22.01357 4.99812,8.61496 9.08749,15.77459 9.08749,15.91029 0,0.13569 -0.23324,0.30771 -0.51831,0.38226 -0.44382,0.11606 -1.36353,-1.33394 -6.39955,-10.08946 z"
         id="path1" /></g></g></svg>
