<?xml version="1.0" encoding="UTF-8" standalone="no"?>
<!-- Created with Inkscape (http://www.inkscape.org/) -->

<svg
   width="183.83943mm"
   height="204.43568mm"
   viewBox="0 0 183.83943 204.43568"
   version="1.1"
   id="svg1"
   xmlns="http://www.w3.org/2000/svg"
   xmlns:svg="http://www.w3.org/2000/svg">
  <defs
     id="defs1" />
  <g
     id="layer1"
     transform="translate(-12.620626,-52.286419)">
    <path
       style="fill:#000000;fill-opacity:1;fill-rule:nonzero;stroke:none;stroke-width:0.264583"
       id="path39"
       d="m 113.78658,52.287183 c -1.33878,-0.01595 -2.67384,0.220826 -4.01023,0.3425 -2.52464,0.09857 -5.0251,0.472472 -7.53645,0.727284 -4.982968,0.395269 -9.929885,1.036635 -14.861017,1.84889 -4.810226,0.764929 -9.594511,1.661192 -14.348423,2.718781 -2.538727,0.708938 -5.222428,0.974921 -7.698084,1.891509 -2.466154,1.502222 -3.468478,3.623607 -4.393255,6.256118 -1.803305,5.789054 -2.811664,11.766137 -3.635502,17.75919 -1.51565,11.705688 -2.856965,23.432555 -4.116469,35.168215 -1.155994,11.81343 -2.637195,23.58766 -4.217546,35.35044 -0.219091,1.60768 -0.438179,3.21535 -0.657267,4.82302 0,0 14.785773,0.39423 14.785773,0.39423 v 0 c 0.212215,-1.6091 0.424429,-3.21819 0.636643,-4.82729 1.547345,-11.79046 3.016409,-23.58931 4.178954,-35.42514 1.258591,-11.70356 2.596301,-23.39952 4.199411,-35.061641 0.860179,-5.758098 1.818854,-11.537257 3.717734,-17.061 0.911773,-2.021237 1.676834,-3.146349 3.965787,-3.561326 2.544842,-0.517838 5.056902,-1.189509 7.602641,-1.705237 4.728157,-0.99223 9.489873,-1.813367 14.26268,-2.560034 4.93909,-0.717392 9.89725,-1.228702 14.86592,-1.693511 2.52111,-0.27178 5.04676,-0.46509 7.57029,-0.705559 1.36498,-0.151165 2.75347,-0.223711 4.09193,-0.520023 z" />
    <path
       style="fill:#000000;fill-opacity:1;fill-rule:nonzero;stroke:none;stroke-width:0.264583"
       id="path40"
       d="m 28.911994,57.900284 c -0.09855,2.279851 -0.30077,4.55073 -0.338315,6.832965 0.03896,3.31965 0.782167,6.507347 1.943481,9.596807 1.183579,2.778527 3.216135,5.018466 5.791682,6.583532 0.585602,0.355849 1.208167,0.64697 1.812247,0.970455 3.75589,1.814078 7.880038,2.480027 11.969671,3.05486 0.56561,0.07228 1.131223,0.144558 1.696834,0.216834 0,0 14.312145,-4.237492 14.312145,-4.237492 v 0 c -0.569433,-0.07788 -1.138867,-0.155758 -1.708303,-0.233638 -3.950404,-0.437412 -7.966234,-0.842449 -11.737723,-2.160095 -2.880321,-1.125524 -5.730304,-2.452071 -7.243033,-5.317162 -1.159848,-2.784192 -1.848286,-5.375431 -1.902325,-8.419899 0.04605,-2.300885 0.269743,-4.589589 0.39061,-6.887167 z" />
    <path
       style="fill:#000000;fill-opacity:1;fill-rule:nonzero;stroke:none;stroke-width:0.264583"
       id="path44"
       d="m 119.0814,68.463839 c -0.12406,1.459357 -0.63478,2.846999 -1.03852,4.24483 -0.96134,3.307148 -1.68945,6.668775 -1.75203,10.127133 -0.0181,0.998805 0.0488,1.997342 0.0732,2.996012 0.47824,4.651105 1.84681,9.218729 4.51422,13.109612 2.01918,2.945324 3.52915,4.229764 6.04192,6.756834 3.4578,2.81672 4.15719,3.71717 8.32588,5.69173 7.51689,3.56049 15.95879,4.26613 24.09784,5.21593 0,0 14.10103,-4.24138 14.10103,-4.24138 v 0 c -3.8058,-0.39577 -8.79679,-0.86709 -12.58731,-1.44977 -5.42248,-0.83356 -10.87173,-1.9899 -15.64584,-4.84735 -1.30931,-0.78366 -2.44927,-1.82064 -3.6739,-2.73096 -2.15375,-2.00838 -4.10682,-3.654085 -5.90649,-5.996184 -2.58038,-3.358102 -3.91624,-7.416607 -4.39025,-11.580897 -0.022,-0.906852 -0.0867,-1.813671 -0.066,-2.720557 0.0738,-3.246713 0.87525,-6.384621 1.79117,-9.479809 0.45469,-1.534856 0.93803,-3.069333 1.09991,-4.669803 z" />
    <path
       style="fill:#000000;fill-opacity:1;fill-rule:nonzero;stroke:none;stroke-width:0.264583"
       id="path45"
       d="m 26.987317,162.40045 c 2.116278,-0.0264 4.232701,-0.0693 6.346298,-0.18115 4.475052,-0.2379 8.958832,-0.18092 13.438556,-0.1856 0.899922,-1.1e-4 1.799841,-2.6e-4 2.69976,-2.7e-4 11.774591,-0.001 -17.691779,5.3e-4 -5.147273,-7.9e-4 1.152041,-1.3e-4 2.304085,-5.3e-4 3.456125,-5.3e-4 1.204188,-4e-5 2.408373,1.9e-4 3.61256,2.7e-4 6.961278,0.009 13.922645,-0.0117 20.883848,0.0253 5.944129,0.0641 11.88774,0.16809 17.831456,0.26176 3.273743,0.0514 6.547496,0.10227 9.821251,0.15307 0.394852,-0.0157 3.279372,0.15175 3.401782,-0.16471 0.0839,-0.21698 -0.009,-0.46522 -0.0128,-0.69783 -0.30507,2.69394 -1.56035,5.3632 -2.68369,7.78752 -1.667714,3.59912 -3.189362,6.31458 -5.075084,9.84259 -9.567516,16.31262 -21.860142,30.78794 -34.072904,45.14562 -8.774766,10.36711 -18.043797,20.2884 -27.3525,30.17166 0,0 14.234295,2.16473 14.234295,2.16473 v 0 c 9.32907,-9.93907 18.625206,-19.91021 27.45533,-30.30112 12.365707,-14.52381 24.815203,-29.17469 34.410303,-45.73822 1.91188,-3.59207 3.49629,-6.43277 5.18426,-10.10736 1.18148,-2.57196 2.50559,-5.47354 2.82289,-8.33858 0.0531,-0.47947 0.0178,-0.96464 0.0267,-1.44696 -0.12157,-0.64999 -0.13867,-1.32854 -0.36472,-1.94996 -0.38689,-1.06357 -2.89377,-0.89525 -3.74156,-0.94623 -3.29152,-0.0443 -6.58304,-0.0886 -9.87453,-0.13451 -5.957416,-0.0841 -11.914708,-0.17653 -17.872042,-0.2662 -6.967347,-0.0929 -13.935691,-0.0207 -20.903501,-0.0469 -10.966188,-0.007 -21.932387,-0.0199 -32.898572,-0.006 -4.507174,0.0132 -9.014554,0.0392 -13.516548,0.28259 -2.158726,0.0626 -4.34015,0.0568 -6.476381,0.40226 z" />
    <path
       style="fill:#000000;fill-opacity:1;fill-rule:nonzero;stroke:none;stroke-width:0.264583"
       id="path46"
       d="m 159.31707,71.906362 c 0.36163,2.904908 0.7525,5.804934 1.0283,8.722069 0.73651,8.515839 0.46927,17.078404 0.22735,25.610039 -0.41146,11.47766 -2.08511,22.91243 -4.89986,34.04724 -0.5911,2.33833 -1.28815,4.6486 -1.93222,6.9729 -2.96736,9.41572 -7.65295,18.0859 -13.32949,26.12588 -2.87399,4.07058 -5.57892,7.37002 -8.6701,11.26634 -6.73851,8.39841 -13.8024,16.55318 -20.15782,25.25334 -1.12192,1.53583 -2.19368,3.10768 -3.29051,4.66152 -2.36614,3.63281 -3.46051,5.13378 -5.47951,8.91637 -1.64167,3.07565 -2.76687,5.06021 -2.987055,8.6091 -0.242006,3.90063 0.614475,5.06916 1.933085,8.61856 2.36375,3.33795 2.85767,4.67163 6.41933,7.01311 5.68629,3.73823 12.83892,5.17559 19.49362,5.76061 2.99532,0.26332 6.01017,0.2074 9.01525,0.3111 19.76746,0.90844 39.13539,-2.28778 58.51604,-5.51826 0,0 -13.92496,-4.02903 -13.92496,-4.02903 v 0 c -9.32938,1.50497 -13.87234,2.33761 -23.27114,3.4525 -3.73811,0.44341 -7.55955,0.32526 -11.23578,1.13482 -1.25824,0.27709 2.55552,0.33022 3.83328,0.49533 -2.95744,-0.008 -5.91855,0.12441 -8.87233,-0.023 -4.80935,-0.24007 -9.34865,-0.88922 -13.95266,-2.28389 -3.46746,-1.05038 -5.9756,-2.11588 -8.66609,-4.50261 -0.97767,-0.86729 -1.71517,-1.97237 -2.57276,-2.95856 -1.23299,-2.71437 -2.10619,-3.73267 -1.90695,-6.82419 0.18985,-2.94587 1.49651,-5.16769 2.88271,-7.69759 1.98968,-3.63129 3.10808,-5.15866 5.42046,-8.65664 1.08891,-1.5244 2.15471,-3.06556 3.26673,-4.57319 6.38114,-8.65127 13.41867,-16.79286 20.10341,-25.20513 3.23601,-4.14371 5.69707,-7.16792 8.68598,-11.51615 5.73604,-8.34471 10.41389,-17.34501 13.41279,-27.04268 0.64586,-2.36809 1.34428,-4.72247 1.93759,-7.10427 2.82174,-11.32759 4.52223,-22.94958 4.97754,-34.6143 0.27786,-8.648962 0.607,-17.326229 -0.0871,-25.964854 -0.23874,-2.826888 -0.53842,-5.647081 -0.92496,-8.456453 z" />
    <path
       style="fill:#000000;fill-opacity:1;fill-rule:nonzero;stroke:none;stroke-width:0.264583"
       id="path47"
       d="m 47.962049,171.62985 c 0.244052,5.15172 -1.632193,10.19661 -3.243791,14.99601 -2.100469,5.03768 -2.80583,7.06009 -5.49629,12.02329 -1.371902,2.5308 -2.905567,4.9705 -4.358352,7.45575 0,0 14.543342,1.53971 14.543342,1.53971 v 0 c 1.481378,-2.55269 3.046388,-5.05865 4.444132,-7.65807 2.734548,-5.08553 3.481332,-7.23457 5.618673,-12.40608 1.742159,-5.21698 3.670358,-10.63543 3.475431,-16.22231 z" />
    <path
       style="fill:#000000;fill-opacity:1;fill-rule:nonzero;stroke:none;stroke-width:0.264583"
       id="path48"
       d="m 21.302925,110.51566 c -0.384049,1.80857 -0.647768,3.6353 -0.867173,5.4702 -0.236313,3.00103 -0.690882,6.06317 -0.15967,9.06182 0.106878,0.60332 0.29431,1.18957 0.441465,1.78435 0.231981,0.54841 0.406353,1.12494 0.695942,1.64524 2.016745,3.62345 6.086929,5.13714 9.693248,6.65465 6.002194,2.30395 12.352467,3.44091 18.660887,4.53703 5.083498,0.88327 8.703966,1.43823 13.846879,2.25536 19.259603,2.82786 38.476947,5.93272 57.734057,8.77603 20.3288,2.84709 40.69837,5.40983 61.13,7.39437 0,0 13.98152,-4.25379 13.98152,-4.25379 v 0 c -20.45069,-1.8727 -40.82851,-4.42765 -61.17229,-7.22476 -19.21023,-2.80091 -38.361677,-5.98184 -57.571123,-8.78949 -7.450423,-1.17339 -6.592734,-1.01741 -13.766913,-2.22511 -6.185845,-1.04133 -12.423331,-1.99539 -18.39482,-3.98233 -2.156775,-0.80582 -3.033702,-1.09279 -5.057537,-1.98916 -1.38815,-0.61482 -3.178352,-1.3366 -4.212653,-2.52689 -0.277368,-0.3192 -0.439132,-0.7228 -0.658697,-1.08421 -0.142628,-0.44254 -0.327985,-0.87352 -0.427884,-1.32761 -0.601988,-2.73642 -0.01714,-5.59015 0.172808,-8.33448 0.255272,-1.95781 0.653473,-3.88784 0.922832,-5.84122 z" />
  </g>
</svg>
